<?xml version="1.0" standalone="no"?><!DOCTYPE svg PUBLIC "-//W3C//DTD SVG 1.1//EN" "http://www.w3.org/Graphics/SVG/1.1/DTD/svg11.dtd"><svg t="1728821933429" class="icon" viewBox="0 0 1024 1024" version="1.1" xmlns="http://www.w3.org/2000/svg" p-id="3903" xmlns:xlink="http://www.w3.org/1999/xlink" width="200" height="200"><path d="M207.75133383 847.44872944c-53.57734535 17.65471458-35.6938242 52.9549915-35.69382424 52.95499151 35.6938242 141.25602123 464.11123732-194.20186048 481.98560622-247.21176557 17.81945532-52.94583923-35.68467197-35.30027692-35.68467192-35.30027689-249.82016039 211.80166148-410.43321707 229.55705099-410.60711006 229.55705095zM512 1420.02343102C10.49261762 1420.02343102-396.01427878 1013.51653463-396.01427878 512-396.01427878 10.49261762 10.49261762-396.01427878 512-396.01427878c501.51653463 0 908.02343102 406.50689639 908.02343102 908.01427878 0 501.51653463-406.50689639 908.02343102-908.02343102 908.02343102zM473.24016782 445.31661458c72.8154014-3.91716841 145.11827606-3.97208198 145.11827607-3.97208198 160.65881798 17.65471458 160.65881798-105.95574432 160.65881796-105.95574433V247.13351986c0-70.59140158-53.57734535-158.90158355-214.18124976-158.90158356-160.65881798 0-196.35264218 17.64556234-196.35264218 17.64556231-71.39680067 17.65471458-53.57734535 52.9549915-53.57734536 52.95499152 17.87436889 35.30027692 71.38764842 17.64556234 71.3876484 17.64556234 107.09062487-35.29112466 214.18124977-17.64556234 214.18124977-17.64556234 107.08147262 0 107.08147262 88.30102972 107.08147262 88.30102973v88.25526841c0 52.9549915-53.5681931 52.9549915-53.56819311 52.9549915H350.54493518c-53.57734535 0-53.57734535-52.9549915-53.57734537-52.9549915V211.78748163c0-35.30027692-35.6938242-35.30027692-35.69382421-35.30027693-35.6938242 0-35.6938242 35.30027692-35.69382421 35.30027693V370.68906519c17.87436889 88.30102972 124.96499377 88.30102972 124.96499379 88.30102975 12.08098666-3.0110944 27.85948741-5.50966209 45.62402912-7.55061669-22.58778416 26.45003894-94.09441197 95.79673282-224.11145471 95.7967328 0 0-53.57734535 0-53.57734536 35.29112469 0 0 0 35.30027692 53.57734536 35.3002769 53.00990506 0.12813168 228.42217039-34.65961852 301.18265823-172.51099806z m-244.02677815 395.03911134l-7.43163728 2.45280638c2.93787631-0.91522626 5.61033699-1.82130025 7.43163728-2.45280638z m335.56770883-381.30156515s-35.6938242 0-35.69382419 35.29112465c0 0 0.11897941 8.22788409 4.08190912 16.74864059-1.37283939 0.23795884-2.73652652 0.54913574-4.08190912 0.90607399-232.04646639 211.84742281-357.02061244 194.21101274-357.02061245 194.21101274-35.6938242 0-35.6938242 35.29112466-35.6938242 35.29112465 17.87436889 141.25602123 410.53389196-141.25602123 428.41741312-194.20186047a53.75123836 53.75123836 0 0 0 3.23990097-17.59980101c19.18314245 0.51252671 128.1408289 6.2967567 193.13104574 70.54564024 71.38764842 70.60055381-17.87436889 229.50213739-142.7844491 247.20261329 0 0-53.57734535 0-71.40595292-35.29112464 0 0-35.6938242-17.65471458-35.69382423 17.65471458 0 0 0 105.95574432 89.26201733 105.95574432 89.27116956 0 249.93913982-70.6097061 267.75859511-264.85732787-0.06406583-0.00915227-0.06406583-211.85657507-303.51648518-211.85657506z m17.81945531-158.90158358s53.57734535 0 53.57734538-35.30027691c0 0 0-35.30027692-53.57734538-35.30027691H404.11312827s-53.57734535 0-53.57734538 35.30027691c0 0 0 35.30027692 53.57734538 35.30027691h178.48742554z" fill="#F30B40" p-id="3904"></path></svg>